<svg xmlns="http://www.w3.org/2000/svg" viewBox="96 0 320 320"><g><svg/></g><g><svg viewBox="0 0 512 320" height="320" width="512"><g><path xmlns="http://www.w3.org/2000/svg" d="M96 160c0-88.366 71.634-160 160-160 88.366 0 160 71.634 160 160 0 88.366-71.634 160-160 160-88.366 0-160-71.634-160-160z" fill="#09b2fa" fill-rule="nonzero" stroke="none" stroke-width="1" stroke-linecap="butt" stroke-linejoin="miter" stroke-miterlimit="10" stroke-dasharray="" stroke-dashoffset="0" font-family="none" font-weight="none" font-size="none" text-anchor="none" style="mix-blend-mode: normal" data-fill-palette-color="tertiary"/></g><g transform="matrix(1,0,0,1,169.26599326599325,80)"><svg viewBox="0 0 173.46801346801348 160" height="160" width="173.46801346801348"><g><svg viewBox="0 0 173.46801346801348 160" height="160" width="173.46801346801348"><g><svg viewBox="0 0 173.46801346801348 160" height="160" width="173.46801346801348"><g><svg viewBox="0 0 173.46801346801348 160" height="160" width="173.46801346801348"><g><svg viewBox="0 0 173.46801346801348 160" height="160" width="173.46801346801348"><g transform="matrix(1,0,0,1,0,0)"><svg width="173.46801346801348" viewBox="-4.639999866485596 -32.41999816894531 47.16999816894531 43.5" height="160" data-palette-color="#ffffff"><path d="M8.69-32.03L8.69-32.03Q9.67-32.03 10.6-32.08 11.52-32.13 12.6-32.2 13.67-32.28 14.36-32.32L14.36-32.32Q14.45-32.03 14.45-31.59L14.45-31.59Q14.45-30.91 14.26-30.91L14.26-30.91Q13.77-30.91 12.5-30.57 11.23-30.22 11.13-29.88L11.13-29.88Q10.69-28.17 10.69-25.34L10.69-25.34 10.69-4.15Q10.69 2 7.25 6.54 3.81 11.08-1.51 11.08L-1.51 11.08Q-2.05 11.08-2.69 10.89-3.32 10.69-3.71 10.5L-3.71 10.5-4.05 10.3Q-4.64 9.62-4.64 8.5L-4.64 8.5Q-4.64 7.42-3.74 6.74-2.83 6.05-1.61 6.05L-1.61 6.05Q-0.73 6.05 0.37 7.1 1.46 8.15 2.1 8.15L2.1 8.15Q2.78 8.15 3.49 7.47 4.2 6.79 4.88 5.47 5.57 4.15 6.01 1.73 6.45-0.68 6.45-3.76L6.45-3.76 6.45-25.54Q6.45-28.56 6.1-29.88L6.1-29.88Q5.96-30.27 4.71-30.59 3.47-30.91 2.83-30.91L2.83-30.91Q2.64-30.91 2.64-31.54L2.64-31.54Q2.64-32.13 2.83-32.32L2.83-32.32Q3.47-32.28 5.42-32.15 7.37-32.03 8.69-32.03ZM23.14-32.03L23.14-32.03Q25.34-32.03 30.76-32.23 36.18-32.42 38.91-32.42L38.91-32.42Q39.11-31.01 39.67-28.69 40.23-26.37 40.33-25.78L40.33-25.78Q40.09-25.54 39.45-25.54 38.82-25.54 38.77-25.88L38.77-25.88Q38.03-28.56 36.72-29.32 35.4-30.08 33.1-30.08L33.1-30.08 29.83-30.08Q25.63-30.08 25.53-29.44L25.53-29.44Q25.29-28.27 25.29-25.34L25.29-25.34 25.29-17.53Q25.29-17.24 27.39-17.24L27.39-17.24 29.98-17.24Q31.35-17.24 31.96-17.24 32.57-17.24 33.25-17.43 33.93-17.63 34.13-17.68 34.32-17.72 34.64-18.31 34.96-18.9 35.01-19.17 35.06-19.43 35.35-20.56L35.35-20.56Q35.4-20.9 36.08-20.9L36.08-20.9Q36.67-20.9 36.91-20.65L36.91-20.65 36.91-11.43Q36.72-11.23 36.13-11.23L36.13-11.23Q35.5-11.23 35.35-11.62L35.35-11.62Q35.01-12.94 34.76-13.6 34.52-14.26 34.4-14.38 34.27-14.5 33.98-14.7L33.98-14.7Q33.35-15.09 28.81-15.09L28.81-15.09Q25.29-15.09 25.29-14.65L25.29-14.65 25.29-7.08Q25.29-3.91 25.73-2.64L25.73-2.64Q25.88-2.15 29.05-2.15L29.05-2.15 31.39-2.15Q35.94-2.15 37.55-2.98L37.55-2.98Q38.28-3.37 39.18-4.71 40.09-6.05 40.62-7.91L40.62-7.91Q40.72-8.2 41.31-8.2L41.31-8.2Q42.23-8.2 42.53-7.91L42.53-7.91Q42.28-7.28 41.77-5.88 41.26-4.49 40.96-3.64 40.67-2.78 40.33-1.66 39.99-0.54 39.89 0.2L39.89 0.2Q37.4 0.2 32.03 0.1 26.66 0 23.24 0L23.24 0 17.33 0.15Q17.19 0 17.19-0.63 17.19-1.27 17.33-1.27L17.33-1.27Q17.97-1.27 19.21-1.61 20.46-1.95 20.7-2.39L20.7-2.39Q21.04-2.98 21.04-6.98L21.04-6.98 21.04-25.44Q21.04-28.32 20.7-29.64L20.7-29.64Q20.55-30.03 19.26-30.37 17.97-30.71 17.33-30.71L17.33-30.71Q17.14-30.71 17.14-31.3L17.14-31.3Q17.14-31.93 17.33-32.13L17.33-32.13Q19.87-32.03 23.14-32.03Z" opacity="1" transform="matrix(1,0,0,1,0,0)" fill="#ffffff" class="undefined-text-0" data-fill-palette-color="quaternary" id="text-0"/></svg></g></svg></g></svg></g></svg></g><g/></svg></g></svg></g></svg></g><defs/></svg>